<?xml version="1.0" standalone="no"?> <!DOCTYPE svg PUBLIC "-//W3C//DTD SVG 1.0//EN" "http://www.w3.org/TR/2001/REC-SVG-20010904/DTD/svg10.dtd" > <svg xmlns="http://www.w3.org/2000/svg" width="100%" height="100%">
<defs >
<font id="chunkfive" horiz-adv-x="600" ><font-face
    font-family="ChunkFive Roman"
    units-per-em="1000"
    panose-1="0 0 5 0 0 0 0 0 0 0"
    ascent="750"
    descent="-250"
    alphabetic="0" />
<missing-glyph horiz-adv-x="280" />
<glyph unicode=" " glyph-name="space" horiz-adv-x="250" />
<glyph unicode="!" glyph-name="exclam" horiz-adv-x="308" d="M32 509V699H271V509L218 257H86L32 509ZM28 102Q28 143 59 175T142 208Q194 208 227 177T261 102Q261 59 228 29T142 -1Q94 -1 61 30T28 102Z" />
<glyph unicode="&quot;" glyph-name="quotedbl" horiz-adv-x="530" d="M254 701L218 402H93L56 701H254ZM474 701L438 402H313L276 701H474Z" />
<glyph unicode="#" glyph-name="numbersign" horiz-adv-x="650" d="M597 322H504L492 255H585L562 122H469L451 20H318L336 122H269L251 20H118L136 122H23L46 255H159L171 322H58L81 455H194L212 559H345L327 455H394L412 559H545L527 455H620L597 322ZM359 255L371
322H304L292 255H359Z" />
<glyph unicode="$" glyph-name="dollar" horiz-adv-x="710" d="M667 448H486Q486 502 450 533T358 564Q333 564 311 550T289 511Q289 483 330 462T429 423T545 380T644 309T685 197Q685 141 661 99T597 32T512 -3T420 -15Q407 -15 385 -13V-77H321V2Q256 25 211
77L200 0H25V252H211Q211 222 224 202T259 171T299 157T337 152Q422 152 422 202Q422 220 394 234T323 257T230 285T138 328T67 397T38 502Q38 555 61 597T120 665T197 704T276 717Q298 717 321 714V788H385V699Q455 672 485 615L495 699H667V448Z" />
<glyph unicode="%" glyph-name="percent" d="M167 374Q116 374 87 409T57 513Q57 572 86 609T162 646Q217 646 244 609T272 506Q272 444 245 409T167 374ZM462 643H347L140 3H255L462 643ZM154 432T167 432T187 452T195 506Q195 586 161 586Q151 586 142 565T132
513Q132 477 143 455ZM437 2Q386 2 357 37T327 141Q327 200 356 237T432 274Q487 274 514 237T542 134Q542 72 515 37T437 2ZM424 60T437 60T457 80T465 134Q465 214 431 214Q421 214 412 193T402 141Q402 105 413 83Z" />
<glyph unicode="&amp;" glyph-name="ampersand" horiz-adv-x="700" d="M647 356H482Q482 337 482 322T482 294T480 271T476 251T469 232T457 211Q421 249 370 337Q442 380 474 439T497 547T442 631T324 666Q264 666 216 628T158 529T194 389Q183 383 169 372T138
350T107 319T80 280T61 230T53 168Q53 104 83 60T159 -1T258 -20T357 -10T435 25Q492 -16 535 -6T602 35T627 92Q577 63 526 130Q550 162 559 204Q568 202 600 203T638 205L647 356ZM310 451Q293 469 286 499T290 556T337 582Q370 582 380 560T371 506T310 451ZM253
276Q308 170 361 110Q338 91 308 85T252 85T208 108T184 150T195 207T253 276Z" />
<glyph unicode="&apos;" glyph-name="quotesingle" horiz-adv-x="273" d="M234 701L198 402H73L36 701H234Z" />
<glyph unicode="(" glyph-name="parenleft" horiz-adv-x="388" d="M260 815L363 709Q334 673 317 650T270 573T225 454T209 312Q209 233 223 165T265 45T312 -37T363 -102L260 -209Q166 -124 96 15T25 312Q25 395 49 478T112 626T187 737T260 815Z" />
<glyph unicode=")" glyph-name="parenright" horiz-adv-x="388" d="M25 708L128 814Q163 783 200 737T276 626T338 478T363 311Q363 154 293 15T128 -210L25 -103Q55 -68 75 -38T123 44T164 164T179 311Q179 387 164 453T118 572T71 648T25 708Z" />
<glyph unicode="*" glyph-name="asterisk" d="M249 696L230 666L252 550L163 596L119 598L87 496L128 477L222 456L136 367V339L219 276L246 301L299 397L349 307L380 275L464 339L455 375L378 455L476 475L513 496L481 598L439 596L349 549L371 665L352 696H249Z" />
<glyph unicode="+" glyph-name="plus" horiz-adv-x="631" d="M581 305V172H378V-31H245V172H42V305H245V508H378V305H581Z" />
<glyph unicode="," glyph-name="comma" horiz-adv-x="272" d="M109 -194L-6 -129Q50 -58 73 15T89 196L271 148Q274 53 231 -35T109 -194Z" />
<glyph unicode="-" glyph-name="hyphen" horiz-adv-x="386" d="M47 305H337V172H47V305Z" />
<glyph unicode="." glyph-name="period" horiz-adv-x="258" d="M15 62T15 104T46 182T128 218T211 182T243 104Q243 57 213 27T128 -4Q80 -4 48 29Z" />
<glyph unicode="/" glyph-name="slash" horiz-adv-x="402" d="M402 731H240L-50 -155H112L402 731Z" />
<glyph unicode="0" glyph-name="zero" horiz-adv-x="599" d="M302 -12Q172 -12 94 81T15 353Q15 512 93 612T297 712Q440 712 512 615T584 346Q584 178 511 83T302 -12ZM302 143Q337 143 360 199T383 346Q383 435 358 493T296 551Q266 552 240 496T213 353Q213
262 241 203T302 143Z" />
<glyph unicode="1" glyph-name="one" horiz-adv-x="496" d="M71 457L25 568Q45 577 66 588T106 611T150 646T200 699H378V133H471V0H71V133H171V504L71 457Z" />
<glyph unicode="2" glyph-name="two" horiz-adv-x="590" d="M141 472L33 586Q140 710 293 710Q395 710 463 650T531 491Q531 411 497 369T371 267Q329 240 283 201T221 133H397V213H565V0H25V145Q65 211 93 243T171 315Q194 336 244 369T321 428T348 482Q348 548
264 548Q239 548 214 534T176 508T141 472Z" />
<glyph unicode="3" glyph-name="three" horiz-adv-x="540" d="M134 498L37 615Q69 650 129 680T251 710Q372 710 439 653T506 498Q506 428 432 371Q525 304 525 207Q525 103 442 45T248 -13Q179 -13 112 21T15 100L117 206Q182 141 249 141Q291 141 315 161T339
218Q339 291 256 291H181V410H254Q291 410 315 428T339 479Q339 517 313 537T251 558Q191 558 134 498Z" />
<glyph unicode="4" glyph-name="four" horiz-adv-x="584" d="M10 340L298 699H505V305H558V197H505V132H559V0H235V132H298V197H10V340ZM298 305V490L150 305H298Z" />
<glyph unicode="5" glyph-name="five" horiz-adv-x="577" d="M238 550L221 453Q258 477 329 477Q423 477 492 414T562 240Q562 179 536 130T467 51T372 4T263 -13Q190 -13 119 23T15 108L124 221Q196 147 264 147Q314 147 344 175T374 247Q374 287 345 315T272
344Q222 344 178 298L50 355L111 699H507V550H238Z" />
<glyph unicode="6" glyph-name="six" horiz-adv-x="581" d="M546 631L478 501Q391 552 332 552Q278 551 244 513T201 416Q221 436 257 451T332 467Q430 471 498 408T566 244Q566 140 496 68T307 -9Q182 -13 101 71T16 304Q15 351 20 397T43 501T91 602T178 677T310
710Q363 712 433 690T546 631ZM306 323Q247 320 203 266Q203 223 227 186T296 148Q334 148 361 173T387 234Q386 269 367 296T306 323Z" />
<glyph unicode="7" glyph-name="seven" horiz-adv-x="566" d="M15 699H556V566L287 0H71L339 566H175V501H15V699Z" />
<glyph unicode="8" glyph-name="eight" horiz-adv-x="559" d="M15 205Q15 255 45 306T123 381Q87 403 68 439T48 514Q48 600 112 655T286 711Q399 711 462 656T525 514Q525 467 501 431T441 378Q490 354 517 306T544 205Q544 111 472 49T280 -13Q158 -13 87 48T15
205ZM359 522Q359 549 337 567T284 585Q255 585 234 566T212 522T231 481T269 461T311 456Q359 479 359 522ZM188 211Q188 176 215 153T281 129Q320 129 346 150T373 211Q373 257 334 277T246 300Q222 286 205 262T188 211Z" />
<glyph unicode="9" glyph-name="nine" horiz-adv-x="587" d="M35 70L103 200Q190 149 249 149Q306 151 339 186T371 285Q323 237 249 234Q151 230 83 293T15 457Q15 561 85 633T274 710Q400 714 483 629T571 397Q572 345 567 297T543 192T492 93T403 22T271 -9Q218
-11 148 11T35 70ZM275 378Q325 380 369 435Q369 481 349 517T285 553Q247 553 220 528T194 467Q195 432 214 405T275 378Z" />
<glyph unicode=":" glyph-name="colon" horiz-adv-x="254" d="M15 402Q15 444 45 479T126 514Q177 514 208 479T239 402Q239 356 209 326T126 296Q81 296 48 329T15 402ZM15 98Q15 140 45 175T126 210Q177 210 208 175T239 98Q239 53 208 23T126 -8Q79 -8 47 24T15 98Z" />
<glyph unicode=";" glyph-name="semicolon" horiz-adv-x="302" d="M59 385Q59 427 90 463T172 499T255 463T287 385Q287 339 256 308T172 277Q126 277 93 310T59 385ZM5 -129L120 -194Q199 -124 242 -36T282 148L100 196Q107 88 84 15T5 -129Z" />
<glyph unicode="&lt;" glyph-name="less" horiz-adv-x="520" d="M369 500L70 350V210L392 60L430 164L183 275L430 388L369 500Z" />
<glyph unicode="=" glyph-name="equal" horiz-adv-x="502" d="M44 406H456V273H44V406ZM44 185H456V52H44V185Z" />
<glyph unicode="&gt;" glyph-name="greater" horiz-adv-x="520" d="M131 500L430 350V210L108 60L70 164L317 275L70 388L131 500Z" />
<glyph unicode="?" glyph-name="question" horiz-adv-x="520" d="M110 477L2 586Q113 715 262 715Q366 715 433 662T500 510Q500 474 484 444T444 393T397 355T358 321T341 288V233H155V313Q155 344 180 375T234 426T289 470T314 512Q314 559 240 559Q210 559
175 535T110 477ZM129 102Q129 143 160 175T243 208Q295 208 328 177T362 102Q362 59 329 29T243 -1Q195 -1 162 30T129 102Z" />
<glyph unicode="@" glyph-name="at" horiz-adv-x="833" d="M585 289V163Q586 143 601 127T634 110T666 140T681 234Q681 280 664 326T615 413T531 478T415 503Q332 503 270 460T180 357T152 234Q152 130 227 54T420 -20V-110Q263 -111 161 -8T59 234Q59 295 82
357T148 473T260 559T415 593T570 560T683 473T750 358T774 234Q774 167 756 121T710 54T648 28T582 28T524 50T486 81L470 110Q445 68 383 68Q332 68 295 96T257 176Q257 231 295 263T390 295Q430 295 453 272V295Q453 331 392 331Q351 331 297 301L270 375Q342
422 411 422Q454 422 491 411T556 369T585 289ZM453 174V197Q450 200 449 204T438 212T415 217Q379 217 379 182Q379 169 388 161T413 153Q426 153 438 159T453 174Z" />
<glyph unicode="A" glyph-name="A" horiz-adv-x="823" d="M808 0H407V131H502L481 199H276L255 131H333V0H15V131H83L218 570H177V699H561L738 131H808V0ZM313 319H444L378 535L313 319Z" />
<glyph unicode="B" glyph-name="B" horiz-adv-x="687" d="M25 0V130H83V570H25V699H398Q643 699 643 528Q643 464 622 430T545 373Q604 357 640 315T677 203Q677 97 613 49T405 0H25ZM290 567V417H351Q389 417 404 436T419 494Q419 528 401 547T353 567H290ZM290
130H370Q403 130 427 153T451 216T429 279T367 304H290V130Z" />
<glyph unicode="C" glyph-name="C" horiz-adv-x="686" d="M554 253L671 125Q543 -16 368 -16Q208 -16 112 80T15 343Q15 425 44 496T118 613T216 685T319 711Q422 711 473 643L496 699H653V415H474Q472 468 445 504T368 541Q315 541 282 484T249 343Q249 264 288
210T395 155Q424 155 454 169T502 200T537 233T554 253Z" />
<glyph unicode="D" glyph-name="D" horiz-adv-x="720" d="M25 0V133H87V567H25V699H330Q507 699 608 603T710 359Q710 188 610 94T326 0H25ZM292 133H330Q406 134 443 196T480 359Q480 447 443 507T330 567H292V133Z" />
<glyph unicode="E" glyph-name="E" horiz-adv-x="653" d="M25 699H628V478H455V567H295V429H485V296H295V133H455V226H628V0H25V133H88V567H25V699Z" />
<glyph unicode="F" glyph-name="F" horiz-adv-x="638" d="M25 699H623V478H446V567H295V393H485V260H295V133H397V0H25V133H87V567H25V699Z" />
<glyph unicode="G" glyph-name="G" horiz-adv-x="776" d="M521 0L490 63Q472 33 428 12T329 -9Q195 -9 105 87T15 343Q15 501 107 606T322 711Q363 711 395 705T449 686T482 665T506 642L517 627L538 699H687V404H508Q506 463 473 497T394 531Q335 531 296 476T257
343Q257 264 294 212T394 159Q462 159 490 208V250H429V357H761V250H721V0H521Z" />
<glyph unicode="H" glyph-name="H" horiz-adv-x="768" d="M25 699H349V567H287V416H477V567H418V699H743V567H685V132H743V0H418V132H477V283H287V132H349V0H25V132H80V567H25V699Z" />
<glyph unicode="I" glyph-name="I" horiz-adv-x="382" d="M25 699H357V567H295V133H357V0H25V133H88V567H25V699Z" />
<glyph unicode="J" glyph-name="J" horiz-adv-x="463" d="M20 -193V-61Q40 -70 65 -70Q148 -70 148 74V568H62V699H438V568H355V74Q355 -64 289 -134T73 -204Q49 -204 20 -193Z" />
<glyph unicode="K" glyph-name="K" horiz-adv-x="815" d="M340 570H286V407L472 570H400V699H733V570H675L530 445L732 130H790V0H400V130H468L360 300L286 237V130H340V0H25V130H79V570H25V699H340V570Z" />
<glyph unicode="L" glyph-name="L" horiz-adv-x="610" d="M25 699H341V567H288V133H417V260H585V0H25V133H80V567H25V699Z" />
<glyph unicode="M" glyph-name="M" horiz-adv-x="1008" d="M723 523H719Q702 430 690 389L585 0H376L264 399Q247 457 243 523H239V129H296V0H25V129H79V570H26V699H405L506 325L602 699H983V570H928V130H983V0H667V130H723V464V523Z" />
<glyph unicode="N" glyph-name="N" horiz-adv-x="816" d="M791 570H725V0H510L255 381V129H332V0H25V129H84V570H26V699H313L558 332V570H490V699H791V570Z" />
<glyph unicode="O" glyph-name="O" horiz-adv-x="740" d="M373 -18Q210 -18 113 76T15 353Q15 515 113 616T366 718Q545 718 635 619T725 346Q725 175 633 79T373 -18ZM373 139Q420 139 447 195T475 346Q475 443 448 503T365 564Q319 565 291 506T262 353Q262
256 293 198T373 139Z" />
<glyph unicode="P" glyph-name="P" horiz-adv-x="640" d="M25 699H349Q433 699 489 683T574 634T614 567T625 485Q625 390 550 339T362 287H286V132H347V0H25V132H81V568H25V699ZM286 569V395H331Q375 395 402 417T429 478Q429 522 405 545T336 569H286Z" />
<glyph unicode="Q" glyph-name="Q" horiz-adv-x="755" d="M740 106V55Q740 -15 701 -60T590 -105Q532 -105 493 -74T435 6Q399 0 357 0Q201 0 108 91T15 354Q15 508 108 605T351 702Q522 702 607 608T693 347Q693 188 610 97Q627 32 654 32Q674 32 674 77V106H740ZM357
347Q415 347 469 308Q471 332 471 347Q471 436 438 496T350 556Q304 557 270 499T235 354Q235 322 239 299Q285 347 357 347ZM357 150Q385 150 410 172Q404 214 393 235T357 256Q316 256 290 183Q320 150 357 150Z" />
<glyph unicode="R" glyph-name="R" horiz-adv-x="737" d="M25 699H350Q434 699 490 684T576 638T616 574T627 493Q627 436 587 397T482 348Q535 340 574 300T613 206Q613 138 637 138Q660 138 660 170V203H727V148Q727 78 693 33T581 -12Q484 -12 436 36T387 174Q387
244 370 265T287 287V132H348V0H25V132H81V568H25V699ZM287 569V399H332Q376 399 402 420T428 480Q428 569 337 569H287Z" />
<glyph unicode="S" glyph-name="S" horiz-adv-x="710" d="M25 0V252H211Q211 222 224 202T259 171T299 157T337 152Q422 152 422 202Q422 220 394 234T323 257T230 285T138 328T67 397T38 502Q38 555 61 597T120 665T197 704T276 717Q431 717 485 615L495 699H667V448H486Q486
502 450 533T358 564Q333 564 311 550T289 511Q289 483 330 462T429 423T545 380T644 309T685 197Q685 141 661 99T597 32T512 -3T420 -15Q289 -15 211 77L200 0H25Z" />
<glyph unicode="T" glyph-name="T" horiz-adv-x="701" d="M686 699V439H539V567H455V133H538V0H166V133H248V567H162V439H15V699H686Z" />
<glyph unicode="U" glyph-name="U" horiz-adv-x="737" d="M15 699H333V570H279V354Q279 240 303 200T379 159Q413 159 433 171T466 228T480 355V567H426V699H722V570H668V327Q668 -17 381 -17Q71 -8 71 322V569H15V699Z" />
<glyph unicode="V" glyph-name="V" horiz-adv-x="773" d="M420 224H425Q428 269 461 351L552 569H499V699H783V569H734L494 0H310L45 569H-10V699H358V569H304L389 345Q418 257 420 224Z" />
<glyph unicode="W" glyph-name="W" horiz-adv-x="1015" d="M320 226H325Q327 249 374 474L424 699H632L695 423Q714 334 725 226H730Q738 313 760 417L794 569H739V699H1025V569H970L821 0H584L524 238Q511 286 499 362H495Q488 312 471 240L410 0H178L46 569H-10V699H320V569H262L288
423Q302 363 320 226Z" />
<glyph unicode="X" glyph-name="X" horiz-adv-x="835" d="M357 0H25V129H112L259 320L78 569H26V699H422V569H364L462 436L564 569H476V699H808V569H723L572 376L752 130H810V0H411V130H468L392 232L371 260L268 129H357V0Z" />
<glyph unicode="Y" glyph-name="Y" horiz-adv-x="669" d="M369 384H373Q375 393 410 470L465 571H410V699H679V571H625L440 246V130H496V0H176V130H233V248L39 571H-10V699H332V571H280L338 465Q341 457 354 425T369 384Z" />
<glyph unicode="Z" glyph-name="Z" horiz-adv-x="714" d="M31 436V699H687L689 566L323 132H509V260H686V0H25V130L389 566H201V436H31Z" />
<glyph unicode="[" glyph-name="bracketleft" horiz-adv-x="388" d="M387 -210H138V814H388V683H328V-79H387V-210Z" />
<glyph unicode="\" glyph-name="backslash" horiz-adv-x="402" d="M0 731H162L452 -155H290L0 731Z" />
<glyph unicode="]" glyph-name="bracketright" horiz-adv-x="388" d="M1 -210H250V814H0V683H60V-79H1V-210Z" />
<glyph unicode="_" glyph-name="underscore" horiz-adv-x="631" d="M42 -44H581V-98H42V-44Z" />
<glyph unicode="a" glyph-name="a" d="M78 342L36 458Q154 529 254 529Q303 529 347 519T433 487T500 423T525 323V128H585V0H371L347 45Q322 11 284 -4T212 -19Q133 -19 74 24T15 148Q15 231 75 281T223 332Q261 332 287 320T322 297V332Q322 388 227 388Q161
388 78 342ZM322 144V182Q305 211 263 211Q205 211 205 158Q205 137 220 124T258 111Q279 111 296 121T322 144Z" />
<glyph unicode="b" glyph-name="b" horiz-adv-x="656" d="M31 0V130H73V619H31V750H273V461Q289 480 328 494T404 508Q513 508 574 431T634 246Q632 129 570 59T403 -11Q352 -11 325 0T271 34L256 0H31ZM414 244Q414 292 394 329T342 367Q311 367 290 332T271
239Q271 189 292 154T343 119Q375 119 394 153T414 244Z" />
<glyph unicode="c" glyph-name="c" horiz-adv-x="531" d="M507 274H360Q358 317 343 348T297 379Q255 379 232 342T209 251Q209 201 237 168T312 133Q380 132 433 190L521 88Q482 45 417 16T276 -14Q159 -14 80 56T1 253Q1 378 72 443T247 509Q324 509 372 452L389
500H507V274Z" />
<glyph unicode="d" glyph-name="d" horiz-adv-x="634" d="M368 620H322V750H571V130H619V0H385L368 37Q318 -9 242 -9Q139 -9 75 69T10 255Q10 368 78 439T242 510Q308 510 368 472V620ZM225 255Q225 207 245 170T297 132Q328 132 349 167T368 260Q368 310 347
345T296 380Q264 380 245 346T225 255Z" />
<glyph unicode="e" glyph-name="e" horiz-adv-x="542" d="M443 166L527 69Q426 -18 269 -18Q164 -18 85 51T5 253Q5 373 81 443T274 514Q362 514 426 474T513 369Q524 337 526 293T515 200H200Q203 185 207 175T221 150T253 126T303 118Q385 118 443 166ZM203
299H354Q353 335 338 357T280 379Q240 379 223 353T203 299Z" />
<glyph unicode="f" glyph-name="f" horiz-adv-x="386" d="M411 743L351 628Q329 638 296 638Q264 638 264 585V500H355V370H264V131H324V0H26V131H66V370H25V500H66V585Q66 606 69 626T84 673T116 720T174 754T264 768Q303 768 347 761T411 743Z" />
<glyph unicode="g" glyph-name="g" horiz-adv-x="640" d="M24 -117L77 -6Q101 -27 151 -48T251 -70Q312 -70 339 -42T367 24V58Q324 3 250 3Q130 3 70 75T10 253Q10 372 75 441T261 510Q292 510 321 498T367 469L387 500H625V369H565V70Q565 -58 486 -131T253
-205Q179 -204 120 -178T24 -117ZM223 255Q223 207 243 170T295 132Q326 132 347 167T366 260Q366 310 345 345T294 380Q262 380 243 346T223 255Z" />
<glyph unicode="h" glyph-name="h" horiz-adv-x="661" d="M339 0H25V131H67V620H25V750H267V438Q279 458 327 488T424 518Q479 518 516 500T570 447T593 378T599 298V131H646V0H389V272Q389 291 388 302T382 330T364 356T330 365Q267 365 267 272V131H339V0Z" />
<glyph unicode="i" glyph-name="i" horiz-adv-x="330" d="M53 608T53 646T82 716T161 748T240 716T271 646Q271 603 242 574T161 545Q116 545 85 576ZM305 0H25V131H67V370H25V500H257V131H305V0Z" />
<glyph unicode="j" glyph-name="j" horiz-adv-x="360" d="M114 608T114 646T143 716T222 748T301 716T332 646Q332 603 303 574T222 545Q177 545 146 576ZM128 370H86V500H318V70Q318 28 312 -7T287 -81T236 -147T148 -191T14 -209V-75Q47 -75 70 -64T104 -39T121
-1T127 36T128 70V370Z" />
<glyph unicode="k" glyph-name="k" horiz-adv-x="654" d="M38 0V130H79V619H38V750H269V298L385 367H313V499H593V367H516L448 324L583 131H633V0H337V131H379L303 239L268 215V131H305V0H38Z" />
<glyph unicode="l" glyph-name="l" horiz-adv-x="332" d="M317 0H25V131H68V621H26V750H258V131H317V0Z" />
<glyph unicode="m" glyph-name="m" horiz-adv-x="908" d="M322 0H25V131H67V367H25V499H214L236 440Q297 513 361 513Q396 513 423 506T468 486T493 464T510 441Q574 513 657 513Q715 513 754 494T811 438T837 363T844 273V135H893V0H639V245Q638 271 639 298T632
347T601 369Q571 369 560 351T548 296V134H608V0H349V255Q349 322 342 345T307 369Q262 369 262 309V131H322V0Z" />
<glyph unicode="n" glyph-name="n" horiz-adv-x="647" d="M333 0H25V131H67V370H25V500H238L261 438Q319 518 404 518Q449 518 482 505T535 472T565 421T581 362T585 298V131H632V0H380V273Q380 291 380 296T378 319T370 344T353 358T324 366Q261 366 261 273V131H333V0Z" />
<glyph unicode="o" glyph-name="o" horiz-adv-x="574" d="M290 -13Q174 -13 92 56T11 252Q12 371 93 441T285 512Q407 510 484 440T563 248Q564 127 486 57T290 -13ZM290 115Q321 115 339 152T358 248T339 343T285 382Q256 382 236 344T216 251Q216 190 237 153T290 115Z" />
<glyph unicode="p" glyph-name="p" horiz-adv-x="638" d="M25 -73H67V367H25V500H254L271 465Q329 508 392 508Q504 508 566 433T628 246Q628 129 564 59T400 -11Q316 -11 270 28V-73H324V-204H25V-73ZM413 244Q413 292 393 329T341 367Q310 367 289 332T270 239Q270
189 291 154T342 119Q374 119 393 153T413 244Z" />
<glyph unicode="q" glyph-name="q" horiz-adv-x="660" d="M318 -99H383V33Q332 -9 255 -9Q157 -9 91 63T25 253Q25 378 92 444T264 510Q307 510 340 497T383 470L402 500H635V370H586V-96H635V-230H318V-99ZM383 257Q383 305 363 342T311 380Q280 380 259 345T240
252Q240 202 261 167T312 132Q344 132 363 166T383 257Z" />
<glyph unicode="r" glyph-name="r" horiz-adv-x="414" d="M308 0H25V131H69V370H26V500H214L244 436Q256 458 265 470T292 497T335 518T399 525V345Q327 345 293 321T258 234V131H308V0Z" />
<glyph unicode="s" glyph-name="s" horiz-adv-x="508" d="M15 0V180H149Q149 156 170 140T214 118T255 113Q299 113 299 147Q299 158 285 166T254 178T205 191T152 207Q19 254 19 367Q19 437 75 474T195 512Q245 512 286 490T344 434L352 500H475V320H345Q345
351 314 373T243 396T204 360Q204 342 241 327T327 298Q366 285 386 276T434 249T475 203T488 138Q488 70 433 29T302 -12Q251 -12 210 9T149 61L140 0H15Z" />
<glyph unicode="t" glyph-name="t" horiz-adv-x="363" d="M15 500H69V592L253 651V500H348V370H253V192Q254 174 253 156T259 125T285 112Q308 112 348 129V1Q328 -7 289 -12T227 -18Q183 -18 154 -8T108 18T83 64T72 120T69 192V370H15V500Z" />
<glyph unicode="u" glyph-name="u" horiz-adv-x="631" d="M15 500H257V259Q257 193 269 163T311 133Q338 133 356 154T374 209V368H308V500H567V133H616V0H427L400 63Q394 54 381 41T353 15T313 -5T258 -14Q147 -14 102 44T57 230V368H15V500Z" />
<glyph unicode="v" glyph-name="v" horiz-adv-x="613" d="M326 162H330Q332 208 360 272L408 373H355V500H613V373H561L388 0H233L47 373H0V500H304V373H254L300 267Q322 202 326 162Z" />
<glyph unicode="w" glyph-name="w" horiz-adv-x="872" d="M282 153H284Q294 284 325 388L357 500H542L580 370Q609 278 623 153H625Q634 247 652 311L669 370H628V500H872V370H831L714 0H503L434 226L362 0H156L43 370H0V500H269V370H235L257 297Q277 229 282 153Z" />
<glyph unicode="x" glyph-name="x" horiz-adv-x="649" d="M375 500H630V375H564L458 268L584 124H631V0H312V124H359L283 205L211 124H276V0H20V124H87L189 239L65 375H20V500H344V375H297L367 299L442 375H375V500Z" />
<glyph unicode="y" glyph-name="y" horiz-adv-x="580" d="M382 373H336V500H590V376H542L352 -86Q341 -110 333 -125T306 -162T267 -196T213 -218T137 -227Q69 -223 16 -177L91 -59Q124 -88 149 -93Q171 -97 188 -81T213 -40L227 2L32 372H-9V500H299V373H252L317
217L382 373Z" />
<glyph unicode="z" glyph-name="z" horiz-adv-x="553" d="M25 300V500H520V371L282 131H387V199H528V0H25V131L266 371H155V300H25Z" />
<glyph unicode="{" glyph-name="braceleft" horiz-adv-x="450" d="M260 815L363 709Q307 696 280 678T252 636T255 584T267 522T264 447Q258 422 234 367L209 312L228 262Q246 212 250 189Q259 144 252 108T242 39T241 -18T274 -64T363 -102L260 -209Q200 -190
164 -164T113 -109T94 -46T93 25T96 103T88 187Q83 212 54 262L25 312L60 370Q96 427 103 455Q114 498 114 551T113 639T119 711T162 773T260 815Z" />
<glyph unicode="|" glyph-name="bar" horiz-adv-x="400" d="M153 -101V818H246V-101H153Z" />
<glyph unicode="}" glyph-name="braceright" horiz-adv-x="450" d="M218 815L115 709Q171 696 198 678T226 636T223 584T211 522T214 447Q220 422 244 367L269 312L250 262Q232 212 228 189Q219 144 226 108T236 39T237 -18T204 -64T115 -102L218 -209Q278 -190
314 -164T365 -109T384 -46T385 25T382 103T390 187Q395 212 424 262L453 312L418 370Q382 427 375 455Q364 498 364 551T365 639T359 711T316 773T218 815Z" />
<glyph unicode="~" glyph-name="asciitilde" horiz-adv-x="400" d="M0 307V198Q28 225 80 232T188 219Q233 197 302 197T398 229V338Q375 310 324 300T212 311Q157 338 94 336T0 307Z" />
</font>
</defs>
</svg>
